<svg width="70" height="54" viewBox="0 0 70 54" fill="none" xmlns="http://www.w3.org/2000/svg">
<g filter="url(#filter0_i)">
<path d="M70 35C70 54.33 54.33 46.5 35 46.5C15.67 46.5 0 54.33 0 35C0 15.67 15.67 0 35 0C54.33 0 70 15.67 70 35Z" fill="#613F5E"/>
</g>
<path d="M58.16 41.05C58.04 41.05 57.94 41.0167 57.86 40.95C57.7867 40.8767 57.75 40.7767 57.75 40.65V34.3C57.75 34.1733 57.7867 34.0767 57.86 34.01C57.94 33.9367 58.04 33.9 58.16 33.9C58.2733 33.9 58.3667 33.9367 58.44 34.01C58.52 34.0767 58.56 34.1733 58.56 34.3V40.65C58.56 40.7767 58.52 40.8767 58.44 40.95C58.3667 41.0167 58.2733 41.05 58.16 41.05ZM60.4842 41.05C60.3642 41.05 60.2642 41.0167 60.1842 40.95C60.1109 40.8767 60.0742 40.7767 60.0742 40.65V36.43C60.0742 36.3033 60.1109 36.2067 60.1842 36.14C60.2642 36.0667 60.3642 36.03 60.4842 36.03C60.6042 36.03 60.7009 36.0667 60.7742 36.14C60.8476 36.2067 60.8842 36.3033 60.8842 36.43V40.65C60.8842 40.7833 60.8476 40.8833 60.7742 40.95C60.7009 41.0167 60.6042 41.05 60.4842 41.05ZM60.4842 34.98C60.3242 34.98 60.1942 34.9333 60.0942 34.84C59.9942 34.7467 59.9442 34.6233 59.9442 34.47C59.9442 34.3233 59.9942 34.2033 60.0942 34.11C60.1942 34.0167 60.3242 33.97 60.4842 33.97C60.6442 33.97 60.7742 34.0167 60.8742 34.11C60.9742 34.2033 61.0242 34.3233 61.0242 34.47C61.0242 34.6233 60.9742 34.7467 60.8742 34.84C60.7742 34.9333 60.6442 34.98 60.4842 34.98ZM62.8084 41.05C62.6884 41.05 62.5884 41.0167 62.5084 40.95C62.4351 40.8767 62.3984 40.7767 62.3984 40.65V34.3C62.3984 34.1733 62.4351 34.0767 62.5084 34.01C62.5884 33.9367 62.6884 33.9 62.8084 33.9C62.9218 33.9 63.0151 33.9367 63.0884 34.01C63.1684 34.0767 63.2084 34.1733 63.2084 34.3V40.65C63.2084 40.7767 63.1684 40.8767 63.0884 40.95C63.0151 41.0167 62.9218 41.05 62.8084 41.05Z" fill="#FDC1DE"/>
<path d="M24.16 36.03C24.44 36.01 24.58 36.1233 24.58 36.37C24.58 36.4767 24.55 36.5633 24.49 36.63C24.43 36.69 24.3267 36.7267 24.18 36.74L23.88 36.77C23.4333 36.81 23.1 36.97 22.88 37.25C22.6667 37.5233 22.56 37.8467 22.56 38.22V40.65C22.56 40.7833 22.5233 40.8833 22.45 40.95C22.3767 41.0167 22.28 41.05 22.16 41.05C22.04 41.05 21.94 41.0167 21.86 40.95C21.7867 40.8767 21.75 40.7767 21.75 40.65V36.43C21.75 36.3033 21.79 36.2067 21.87 36.14C21.95 36.0667 22.0467 36.03 22.16 36.03C22.2667 36.03 22.3567 36.0667 22.43 36.14C22.5033 36.2067 22.54 36.3 22.54 36.42V36.98C22.68 36.6867 22.8767 36.4633 23.13 36.31C23.39 36.1567 23.6867 36.0667 24.02 36.04L24.16 36.03ZM25.6854 41.05C25.5654 41.05 25.4654 41.0167 25.3854 40.95C25.3121 40.8767 25.2754 40.7767 25.2754 40.65V36.43C25.2754 36.3033 25.3121 36.2067 25.3854 36.14C25.4654 36.0667 25.5654 36.03 25.6854 36.03C25.8054 36.03 25.9021 36.0667 25.9754 36.14C26.0487 36.2067 26.0854 36.3033 26.0854 36.43V40.65C26.0854 40.7833 26.0487 40.8833 25.9754 40.95C25.9021 41.0167 25.8054 41.05 25.6854 41.05ZM25.6854 34.98C25.5254 34.98 25.3954 34.9333 25.2954 34.84C25.1954 34.7467 25.1454 34.6233 25.1454 34.47C25.1454 34.3233 25.1954 34.2033 25.2954 34.11C25.3954 34.0167 25.5254 33.97 25.6854 33.97C25.8454 33.97 25.9754 34.0167 26.0754 34.11C26.1754 34.2033 26.2254 34.3233 26.2254 34.47C26.2254 34.6233 26.1754 34.7467 26.0754 34.84C25.9754 34.9333 25.8454 34.98 25.6854 34.98ZM29.8496 40.41C30.0829 40.43 30.1996 40.5367 30.1996 40.73C30.1996 40.8433 30.1563 40.93 30.0696 40.99C29.9896 41.0433 29.8663 41.0633 29.6996 41.05L29.4296 41.03C28.8963 40.99 28.5029 40.83 28.2496 40.55C27.9963 40.27 27.8696 39.8467 27.8696 39.28V36.77H27.1996C27.0863 36.77 26.9963 36.7433 26.9296 36.69C26.8696 36.63 26.8396 36.5533 26.8396 36.46C26.8396 36.36 26.8696 36.28 26.9296 36.22C26.9963 36.16 27.0863 36.13 27.1996 36.13H27.8696V35C27.8696 34.8733 27.9063 34.7767 27.9796 34.71C28.0529 34.6367 28.1529 34.6 28.2796 34.6C28.3996 34.6 28.4963 34.6367 28.5696 34.71C28.6429 34.7767 28.6796 34.8733 28.6796 35V36.13H29.7896C29.8963 36.13 29.9796 36.16 30.0396 36.22C30.1063 36.28 30.1396 36.36 30.1396 36.46C30.1396 36.5533 30.1063 36.63 30.0396 36.69C29.9796 36.7433 29.8963 36.77 29.7896 36.77H28.6796V39.32C28.6796 39.6867 28.7529 39.9533 28.8996 40.12C29.0529 40.28 29.2796 40.37 29.5796 40.39L29.8496 40.41Z" fill="#FDC1DE"/>
<path d="M21.784 28.67C21.832 28.514 21.916 28.4 22.036 28.328C22.156 28.244 22.288 28.202 22.432 28.202C22.624 28.202 22.786 28.262 22.918 28.382C23.062 28.49 23.134 28.64 23.134 28.832C23.134 28.916 23.116 29.012 23.08 29.12L19.012 40.586C18.952 40.754 18.85 40.886 18.706 40.982C18.562 41.066 18.4 41.108 18.22 41.108C18.052 41.108 17.896 41.066 17.752 40.982C17.608 40.886 17.506 40.754 17.446 40.586L13.918 30.614L10.354 40.586C10.294 40.754 10.192 40.886 10.048 40.982C9.904 41.066 9.748 41.108 9.58 41.108C9.412 41.108 9.256 41.066 9.112 40.982C8.968 40.886 8.866 40.754 8.806 40.586L4.72 29.12C4.684 29.024 4.666 28.934 4.666 28.85C4.666 28.658 4.738 28.502 4.882 28.382C5.038 28.262 5.212 28.202 5.404 28.202C5.548 28.202 5.68 28.244 5.8 28.328C5.932 28.4 6.022 28.514 6.07 28.67L9.616 38.894L13.216 28.778C13.276 28.598 13.372 28.466 13.504 28.382C13.636 28.286 13.78 28.238 13.936 28.238C14.092 28.238 14.236 28.286 14.368 28.382C14.5 28.478 14.596 28.616 14.656 28.796L18.202 38.93L21.784 28.67Z" fill="#FF69B2"/>
<g style="mix-blend-mode:color-burn">
<circle cx="27" cy="9" r="2" fill="#F7D5E5"/>
</g>
<g style="mix-blend-mode:color-burn">
<circle cx="44" cy="15" r="2" fill="#F7D5E5"/>
</g>
<g style="mix-blend-mode:color-burn">
<circle cx="27" cy="9" r="2" fill="#F7D5E5"/>
</g>
<g style="mix-blend-mode:color-burn">
<circle cx="16" cy="26" r="2" fill="#F7D5E5"/>
</g>
<g style="mix-blend-mode:color-burn">
<circle cx="44" cy="43" r="2" fill="#F7D5E5"/>
</g>
<g style="mix-blend-mode:color-burn">
<circle cx="50" cy="7" r="2" fill="#F7D5E5"/>
</g>
<g style="mix-blend-mode:color-burn">
<circle cx="12" cy="13" r="2" fill="#F7D5E5"/>
</g>
<g style="mix-blend-mode:color-burn">
<circle cx="33" cy="27" r="2" fill="#F7D5E5"/>
</g>
<g style="mix-blend-mode:color-burn">
<circle cx="65" cy="26" r="2" fill="#F7D5E5"/>
</g>
<path d="M55.984 39.308C56.08 39.5 56.128 39.704 56.128 39.92C56.128 40.28 55.984 40.58 55.696 40.82C55.432 41.06 55.108 41.18 54.724 41.18C54.124 41.18 53.704 40.892 53.464 40.316L50.908 34.484H37.336L34.744 40.316C34.504 40.892 34.084 41.18 33.484 41.18C33.1 41.18 32.764 41.06 32.476 40.82C32.188 40.556 32.044 40.244 32.044 39.884C32.044 39.692 32.092 39.5 32.188 39.308L42.484 16.412C42.628 16.076 42.844 15.824 43.132 15.656C43.42 15.488 43.732 15.404 44.068 15.404C44.428 15.404 44.752 15.5 45.04 15.692C45.328 15.86 45.544 16.1 45.688 16.412L55.984 39.308ZM49.828 32.036L44.104 19.112L38.416 32.036H49.828Z" fill="#FF69B2"/>
<defs>
<filter id="filter0_i" x="0" y="0" width="70" height="52.0684" filterUnits="userSpaceOnUse" color-interpolation-filters="sRGB">
<feFlood flood-opacity="0" result="BackgroundImageFix"/>
<feBlend mode="normal" in="SourceGraphic" in2="BackgroundImageFix" result="shape"/>
<feColorMatrix in="SourceAlpha" type="matrix" values="0 0 0 0 0 0 0 0 0 0 0 0 0 0 0 0 0 0 127 0" result="hardAlpha"/>
<feOffset dy="4"/>
<feGaussianBlur stdDeviation="2"/>
<feComposite in2="hardAlpha" operator="arithmetic" k2="-1" k3="1"/>
<feColorMatrix type="matrix" values="0 0 0 0 0 0 0 0 0 0 0 0 0 0 0 0 0 0 0.25 0"/>
<feBlend mode="normal" in2="shape" result="effect1_innerShadow"/>
</filter>
</defs>
</svg>
